<svg width="60" height="60" viewBox="0 0 60 60" fill="none" xmlns="http://www.w3.org/2000/svg">
<path d="M58.7857 51.8968H52.4329C56.6497 46.303 58.9721 39.3085 58.9721 32.2016C58.9721 14.9927 45.9751 0.992126 29.9982 0.992126C14.0219 0.992126 1.02429 14.9933 1.02429 32.2016C1.02429 39.3097 3.34548 46.3042 7.56163 51.8968H1.21433C0.544019 51.8968 0 52.4408 0 53.1111V57.7948C0 58.4651 0.544019 59.0091 1.21433 59.0091H18.5495C19.2198 59.0091 19.7638 58.4651 19.7638 57.7948V52.5774C19.7638 52.2884 19.6612 52.0097 19.4742 51.7905L19.4068 51.711C19.3388 51.6302 19.2599 51.5592 19.173 51.4997C13.207 47.3649 9.5003 39.9709 9.5003 32.201C9.5003 19.6655 18.6958 9.46754 29.9982 9.46754C41.2999 9.46754 50.4954 19.6661 50.4954 32.201C50.4954 40.0037 46.7656 47.4135 40.7632 51.5398C40.4335 51.7663 40.2368 52.1403 40.2368 52.5398V57.7936C40.2368 58.4639 40.7808 59.0079 41.4511 59.0079H58.7857C59.456 59.0079 60 58.4639 60 57.7936V53.1099C60 52.4402 59.4572 51.8968 58.7857 51.8968Z" fill="white"/>
</svg>
